<?xml version="1.0" encoding="UTF-8" standalone="no"?>
<!DOCTYPE svg PUBLIC "-//W3C//DTD SVG 1.1//EN" "http://www.w3.org/Graphics/SVG/1.1/DTD/svg11.dtd">
<svg width="100%" height="100%" viewBox="0 0 59 59" version="1.1" xmlns="http://www.w3.org/2000/svg" xmlns:xlink="http://www.w3.org/1999/xlink" xml:space="preserve" xmlns:serif="http://www.serif.com/" style="fill-rule:evenodd;clip-rule:evenodd;stroke-linejoin:round;stroke-miterlimit:2;">
    <g transform="matrix(1,0,0,1,-138.203824,-0.714637)">
        <g transform="matrix(1,0,0,1,-51.538925,-0.014006)">
            <g transform="matrix(0.98391,0,0,0.97764,2.239112,0.640655)">
                <path d="M245.45,26.23C244.23,23.51 242.03,21.44 239.25,20.37C236.46,19.34 233.46,19.41 230.78,20.6C232.63,17.59 232.99,13.73 231.44,10.28L226.89,0.09L216.7,4.66C213.98,5.88 211.89,8.08 210.85,10.86C209.82,13.63 209.89,16.63 211.08,19.33C208.07,17.48 204.21,17.12 200.76,18.65L190.57,23.22L195.14,33.41C196.36,36.13 198.56,38.2 201.34,39.26C202.63,39.75 203.97,39.99 205.3,39.99C206.83,39.99 208.37,39.68 209.8,39.03C207.97,42.04 207.6,45.88 209.14,49.35L213.71,59.54L223.9,54.97C226.62,53.75 228.69,51.55 229.75,48.77C230.78,46 230.71,43 229.52,40.34C230.08,40.67 230.69,40.97 231.31,41.21C232.6,41.7 233.94,41.96 235.3,41.96C236.83,41.96 238.38,41.63 239.83,40.98L250.01,36.41L245.46,26.22L245.45,26.23ZM212.87,11.63C213.72,9.4 215.4,7.62 217.59,6.65L225.8,2.97L229.48,11.18C231.17,14.96 230.02,19.32 226.92,21.83C226.33,22.32 225.67,22.72 224.93,23.05C221.76,24.46 218.19,23.89 215.66,21.83C214.58,20.98 213.69,19.86 213.08,18.52C212.1,16.34 212.03,13.88 212.87,11.64L212.87,11.63ZM208.98,37.04C206.8,38.02 204.34,38.09 202.1,37.25C199.85,36.4 198.09,34.72 197.1,32.53L193.44,24.32L201.65,20.64C206.16,18.62 211.48,20.66 213.5,25.19C214.04,26.37 214.28,27.63 214.28,28.85C214.28,32.28 212.31,35.56 208.98,37.04ZM227.71,48.01C226.86,50.24 225.18,52.02 222.99,52.99L214.78,56.67L211.1,48.46C209.08,43.95 211.12,38.63 215.65,36.61C216.83,36.07 218.07,35.83 219.29,35.83C222.72,35.83 226,37.8 227.5,41.13C228.48,43.31 228.55,45.77 227.71,48.01ZM238.93,39.01C236.73,39.99 234.31,40.06 232.06,39.2C230.32,38.54 228.85,37.37 227.83,35.84C227.53,35.4 227.29,34.95 227.06,34.46C226.08,32.28 226.01,29.84 226.89,27.59C227.24,26.7 227.69,25.88 228.28,25.17C229.15,24.07 230.28,23.2 231.59,22.61C232.76,22.09 234.01,21.83 235.28,21.83C236.34,21.83 237.44,22.02 238.47,22.41C240.7,23.26 242.48,24.94 243.45,27.13L247.13,35.34L238.92,39.02L238.93,39.01Z" style="fill:rgb(198,161,91);fill-rule:nonzero;"/>
            </g>
        </g>
    </g>
</svg>
